<?xml version="1.0" encoding="UTF-8"?>
<!DOCTYPE svg PUBLIC "-//W3C//DTD SVG 1.1//EN" "http://www.w3.org/Graphics/SVG/1.1/DTD/svg11.dtd">
<svg version="1.1" id="Layer_1" xmlns="http://www.w3.org/2000/svg" xmlns:xlink="http://www.w3.org/1999/xlink" x="0px" y="0px" viewBox="0 125.1 541.8 541.8" enable-background="new 0 125.1 541.8 541.8" xml:space="preserve">
	<g>
		<g>
			<path fill="#007BB6" d="M501.6,125.1H39.9C17.8,125.1,0,142.7,0,164.2V628c0,21.3,17.8,38.9,39.9,38.9h461.8    c22.1,0,40.1-17.6,40.1-39.1V164.2C541.8,142.7,523.7,125.1,501.6,125.1z"/>
			<path fill="#FFFFFF" d="M80.3,328.3h80.5v258.6H80.3V328.3z M120.4,199.6c25.6,0,46.7,20.8,46.7,46.7s-20.8,46.7-46.7,46.7    s-46.7-20.8-46.7-46.7C74,220.7,94.8,199.6,120.4,199.6"/>
			<path fill="#FFFFFF" d="M211.2,328.3h77v35.4h1c10.8-20.3,36.9-41.6,76-41.6c81.3,0,96.3,53.4,96.3,123.2v141.7h-80.3V461.2    c0-30.1-0.5-68.5-41.9-68.5c-41.9,0-48.2,32.6-48.2,66.5v127.9h-80.3V328.3H211.2z"/>
		</g>
	</g>
</svg>
